<svg id="visual" viewBox="0 0 900 600" width="900" height="600" xmlns="http://www.w3.org/2000/svg" xmlns:xlink="http://www.w3.org/1999/xlink" version="1.1"><rect x="0" y="0" width="900" height="600" fill="#5c2a26"></rect><defs><linearGradient id="grad1_0" x1="33.3%" y1="0%" x2="100%" y2="100%"><stop offset="20%" stop-color="#a86a0e" stop-opacity="1"></stop><stop offset="80%" stop-color="#a86a0e" stop-opacity="1"></stop></linearGradient></defs><defs><linearGradient id="grad1_1" x1="33.3%" y1="0%" x2="100%" y2="100%"><stop offset="20%" stop-color="#a86a0e" stop-opacity="1"></stop><stop offset="80%" stop-color="#9f5c18" stop-opacity="1"></stop></linearGradient></defs><defs><linearGradient id="grad1_2" x1="33.3%" y1="0%" x2="100%" y2="100%"><stop offset="20%" stop-color="#95501f" stop-opacity="1"></stop><stop offset="80%" stop-color="#9f5c18" stop-opacity="1"></stop></linearGradient></defs><defs><linearGradient id="grad1_3" x1="33.3%" y1="0%" x2="100%" y2="100%"><stop offset="20%" stop-color="#95501f" stop-opacity="1"></stop><stop offset="80%" stop-color="#884423" stop-opacity="1"></stop></linearGradient></defs><defs><linearGradient id="grad1_4" x1="33.3%" y1="0%" x2="100%" y2="100%"><stop offset="20%" stop-color="#7b3a26" stop-opacity="1"></stop><stop offset="80%" stop-color="#884423" stop-opacity="1"></stop></linearGradient></defs><defs><linearGradient id="grad1_5" x1="33.3%" y1="0%" x2="100%" y2="100%"><stop offset="20%" stop-color="#7b3a26" stop-opacity="1"></stop><stop offset="80%" stop-color="#6c3227" stop-opacity="1"></stop></linearGradient></defs><defs><linearGradient id="grad1_6" x1="33.3%" y1="0%" x2="100%" y2="100%"><stop offset="20%" stop-color="#5c2a26" stop-opacity="1"></stop><stop offset="80%" stop-color="#6c3227" stop-opacity="1"></stop></linearGradient></defs><defs><linearGradient id="grad2_0" x1="0%" y1="0%" x2="66.7%" y2="100%"><stop offset="20%" stop-color="#a86a0e" stop-opacity="1"></stop><stop offset="80%" stop-color="#a86a0e" stop-opacity="1"></stop></linearGradient></defs><defs><linearGradient id="grad2_1" x1="0%" y1="0%" x2="66.7%" y2="100%"><stop offset="20%" stop-color="#9f5c18" stop-opacity="1"></stop><stop offset="80%" stop-color="#a86a0e" stop-opacity="1"></stop></linearGradient></defs><defs><linearGradient id="grad2_2" x1="0%" y1="0%" x2="66.7%" y2="100%"><stop offset="20%" stop-color="#9f5c18" stop-opacity="1"></stop><stop offset="80%" stop-color="#95501f" stop-opacity="1"></stop></linearGradient></defs><defs><linearGradient id="grad2_3" x1="0%" y1="0%" x2="66.7%" y2="100%"><stop offset="20%" stop-color="#884423" stop-opacity="1"></stop><stop offset="80%" stop-color="#95501f" stop-opacity="1"></stop></linearGradient></defs><defs><linearGradient id="grad2_4" x1="0%" y1="0%" x2="66.7%" y2="100%"><stop offset="20%" stop-color="#884423" stop-opacity="1"></stop><stop offset="80%" stop-color="#7b3a26" stop-opacity="1"></stop></linearGradient></defs><defs><linearGradient id="grad2_5" x1="0%" y1="0%" x2="66.7%" y2="100%"><stop offset="20%" stop-color="#6c3227" stop-opacity="1"></stop><stop offset="80%" stop-color="#7b3a26" stop-opacity="1"></stop></linearGradient></defs><defs><linearGradient id="grad2_6" x1="0%" y1="0%" x2="66.7%" y2="100%"><stop offset="20%" stop-color="#6c3227" stop-opacity="1"></stop><stop offset="80%" stop-color="#5c2a26" stop-opacity="1"></stop></linearGradient></defs><g transform="translate(900, 0)"><path d="M0 486.7C-55.8 457 -111.6 427.3 -167.2 403.7C-222.9 380.2 -278.5 362.9 -328.8 328.8C-379.1 294.7 -424.2 243.9 -449.7 186.3C-475.2 128.7 -480.9 64.3 -486.7 0L0 0Z" fill="#642e27"></path><path d="M0 417.2C-47.8 391.7 -95.6 366.2 -143.3 346.1C-191.1 325.9 -238.7 311 -281.8 281.8C-325 252.6 -363.6 209 -385.5 159.7C-407.3 110.3 -412.2 55.1 -417.2 0L0 0Z" fill="#733626"></path><path d="M0 347.7C-39.8 326.4 -79.7 305.2 -119.5 288.4C-159.2 271.6 -198.9 259.2 -234.9 234.9C-270.8 210.5 -303 174.2 -321.2 133.1C-339.4 91.9 -343.5 46 -347.7 0L0 0Z" fill="#823f25"></path><path d="M0 278.1C-31.9 261.1 -63.7 244.2 -95.6 230.7C-127.4 217.3 -159.1 207.4 -187.9 187.9C-216.7 168.4 -242.4 139.4 -257 106.4C-271.5 73.5 -274.8 36.8 -278.1 0L0 0Z" fill="#8f4a21"></path><path d="M0 208.6C-23.9 195.9 -47.8 183.1 -71.7 173C-95.5 162.9 -119.3 155.5 -140.9 140.9C-162.5 126.3 -181.8 104.5 -192.7 79.8C-203.6 55.1 -206.1 27.6 -208.6 0L0 0Z" fill="#9a561c"></path><path d="M0 139.1C-15.9 130.6 -31.9 122.1 -47.8 115.4C-63.7 108.6 -79.6 103.7 -93.9 93.9C-108.3 84.2 -121.2 69.7 -128.5 53.2C-135.8 36.8 -137.4 18.4 -139.1 0L0 0Z" fill="#a46314"></path><path d="M0 69.5C-8 65.3 -15.9 61 -23.9 57.7C-31.8 54.3 -39.8 51.8 -47 47C-54.2 42.1 -60.6 34.8 -64.2 26.6C-67.9 18.4 -68.7 9.2 -69.5 0L0 0Z" fill="#a86a0e"></path></g><g transform="translate(0, 600)"><path d="M0 -486.7C47.2 -439.1 94.4 -391.5 155 -374.2C215.6 -356.8 289.6 -369.6 342.9 -342.9C396.3 -316.3 429.2 -250 449.7 -186.3C470.2 -122.5 478.5 -61.3 486.7 0L0 0Z" fill="#642e27"></path><path d="M0 -417.2C40.5 -376.4 80.9 -335.6 132.8 -320.7C184.8 -305.8 248.2 -316.8 294 -294C339.7 -271.1 367.9 -214.3 385.5 -159.7C403.1 -105 410.1 -52.5 417.2 0L0 0Z" fill="#733626"></path><path d="M0 -347.7C33.7 -313.7 67.4 -279.7 110.7 -267.3C154 -254.9 206.8 -264 245 -245C283.1 -225.9 306.5 -178.6 321.2 -133.1C335.9 -87.5 341.8 -43.8 347.7 0L0 0Z" fill="#823f25"></path><path d="M0 -278.1C27 -250.9 53.9 -223.7 88.6 -213.8C123.2 -203.9 165.5 -211.2 196 -196C226.5 -180.7 245.2 -142.9 257 -106.4C268.7 -70 273.4 -35 278.1 0L0 0Z" fill="#8f4a21"></path><path d="M0 -208.6C20.2 -188.2 40.5 -167.8 66.4 -160.4C92.4 -152.9 124.1 -158.4 147 -147C169.9 -135.5 183.9 -107.2 192.7 -79.8C201.5 -52.5 205.1 -26.3 208.6 0L0 0Z" fill="#9a561c"></path><path d="M0 -139.1C13.5 -125.5 27 -111.9 44.3 -106.9C61.6 -101.9 82.7 -105.6 98 -98C113.2 -90.4 122.6 -71.4 128.5 -53.2C134.4 -35 136.7 -17.5 139.1 0L0 0Z" fill="#a46314"></path><path d="M0 -69.5C6.7 -62.7 13.5 -55.9 22.1 -53.5C30.8 -51 41.4 -52.8 49 -49C56.6 -45.2 61.3 -35.7 64.2 -26.6C67.2 -17.5 68.4 -8.8 69.5 0L0 0Z" fill="#a86a0e"></path></g></svg>