<svg id="visual" viewBox="0 0 900 600" width="900" height="600" xmlns="http://www.w3.org/2000/svg" xmlns:xlink="http://www.w3.org/1999/xlink" version="1.1"><rect x="0" y="0" width="900" height="600" fill="#00357c"></rect><path d="M0 396L100 442L200 395L300 509L400 458L500 562L600 438L700 556L800 364L900 513L900 0L800 0L700 0L600 0L500 0L400 0L300 0L200 0L100 0L0 0Z" fill="#003d87"></path><path d="M0 425L100 507L200 523L300 384L400 350L500 499L600 507L700 514L800 537L900 369L900 0L800 0L700 0L600 0L500 0L400 0L300 0L200 0L100 0L0 0Z" fill="#00488f"></path><path d="M0 367L100 385L200 454L300 393L400 447L500 303L600 373L700 316L800 468L900 327L900 0L800 0L700 0L600 0L500 0L400 0L300 0L200 0L100 0L0 0Z" fill="#005396"></path><path d="M0 329L100 270L200 311L300 403L400 301L500 387L600 322L700 412L800 257L900 310L900 0L800 0L700 0L600 0L500 0L400 0L300 0L200 0L100 0L0 0Z" fill="#005e9d"></path><path d="M0 255L100 242L200 306L300 293L400 358L500 220L600 294L700 316L800 256L900 376L900 0L800 0L700 0L600 0L500 0L400 0L300 0L200 0L100 0L0 0Z" fill="#0068a3"></path><path d="M0 310L100 322L200 189L300 198L400 216L500 289L600 199L700 274L800 276L900 284L900 0L800 0L700 0L600 0L500 0L400 0L300 0L200 0L100 0L0 0Z" fill="#0073a8"></path><path d="M0 193L100 220L200 182L300 286L400 243L500 158L600 193L700 288L800 264L900 266L900 0L800 0L700 0L600 0L500 0L400 0L300 0L200 0L100 0L0 0Z" fill="#067dad"></path><path d="M0 127L100 170L200 147L300 206L400 208L500 131L600 171L700 199L800 143L900 165L900 0L800 0L700 0L600 0L500 0L400 0L300 0L200 0L100 0L0 0Z" fill="#1687b1"></path><path d="M0 172L100 120L200 79L300 96L400 158L500 189L600 135L700 76L800 167L900 164L900 0L800 0L700 0L600 0L500 0L400 0L300 0L200 0L100 0L0 0Z" fill="#2691b5"></path><path d="M0 60L100 106L200 90L300 82L400 134L500 90L600 109L700 60L800 117L900 78L900 0L800 0L700 0L600 0L500 0L400 0L300 0L200 0L100 0L0 0Z" fill="#369bb8"></path><path d="M0 26L100 54L200 91L300 16L400 23L500 69L600 29L700 38L800 87L900 14L900 0L800 0L700 0L600 0L500 0L400 0L300 0L200 0L100 0L0 0Z" fill="#46a5bb"></path></svg>