<svg id="visual" viewBox="0 0 900 600" width="900" height="600" xmlns="http://www.w3.org/2000/svg" xmlns:xlink="http://www.w3.org/1999/xlink" version="1.1"><path d="M0 13L13.7 20C27.3 27 54.7 41 82 48C109.3 55 136.7 55 163.8 50C191 45 218 35 245.2 34C272.3 33 299.7 41 327 46C354.3 51 381.7 53 409 50C436.3 47 463.7 39 491 39C518.3 39 545.7 47 573 47C600.3 47 627.7 39 654.8 32C682 25 709 19 736.2 23C763.3 27 790.7 41 818 42C845.3 43 872.7 31 886.3 25L900 19L900 0L886.3 0C872.7 0 845.3 0 818 0C790.7 0 763.3 0 736.2 0C709 0 682 0 654.8 0C627.7 0 600.3 0 573 0C545.7 0 518.3 0 491 0C463.7 0 436.3 0 409 0C381.7 0 354.3 0 327 0C299.7 0 272.3 0 245.2 0C218 0 191 0 163.8 0C136.7 0 109.3 0 82 0C54.7 0 27.3 0 13.7 0L0 0Z" fill="#5793ba"></path><path d="M0 103L13.7 97C27.3 91 54.7 79 82 85C109.3 91 136.7 115 163.8 124C191 133 218 127 245.2 129C272.3 131 299.7 141 327 135C354.3 129 381.7 107 409 100C436.3 93 463.7 101 491 101C518.3 101 545.7 93 573 100C600.3 107 627.7 129 654.8 126C682 123 709 95 736.2 91C763.3 87 790.7 107 818 120C845.3 133 872.7 139 886.3 142L900 145L900 17L886.3 23C872.7 29 845.3 41 818 40C790.7 39 763.3 25 736.2 21C709 17 682 23 654.8 30C627.7 37 600.3 45 573 45C545.7 45 518.3 37 491 37C463.7 37 436.3 45 409 48C381.7 51 354.3 49 327 44C299.7 39 272.3 31 245.2 32C218 33 191 43 163.8 48C136.7 53 109.3 53 82 46C54.7 39 27.3 25 13.7 18L0 11Z" fill="#4d8cb5"></path><path d="M0 121L13.7 113C27.3 105 54.7 89 82 99C109.3 109 136.7 145 163.8 162C191 179 218 177 245.2 174C272.3 171 299.7 167 327 153C354.3 139 381.7 115 409 108C436.3 101 463.7 111 491 119C518.3 127 545.7 133 573 145C600.3 157 627.7 175 654.8 167C682 159 709 125 736.2 122C763.3 119 790.7 147 818 156C845.3 165 872.7 155 886.3 150L900 145L900 143L886.3 140C872.7 137 845.3 131 818 118C790.7 105 763.3 85 736.2 89C709 93 682 121 654.8 124C627.7 127 600.3 105 573 98C545.7 91 518.3 99 491 99C463.7 99 436.3 91 409 98C381.7 105 354.3 127 327 133C299.7 139 272.3 129 245.2 127C218 125 191 131 163.8 122C136.7 113 109.3 89 82 83C54.7 77 27.3 89 13.7 95L0 101Z" fill="#4385b0"></path><path d="M0 157L13.7 145C27.3 133 54.7 109 82 124C109.3 139 136.7 193 163.8 214C191 235 218 223 245.2 209C272.3 195 299.7 179 327 169C354.3 159 381.7 155 409 157C436.3 159 463.7 167 491 169C518.3 171 545.7 167 573 173C600.3 179 627.7 195 654.8 197C682 199 709 187 736.2 188C763.3 189 790.7 203 818 203C845.3 203 872.7 189 886.3 182L900 175L900 143L886.3 148C872.7 153 845.3 163 818 154C790.7 145 763.3 117 736.2 120C709 123 682 157 654.8 165C627.7 173 600.3 155 573 143C545.7 131 518.3 125 491 117C463.7 109 436.3 99 409 106C381.7 113 354.3 137 327 151C299.7 165 272.3 169 245.2 172C218 175 191 177 163.8 160C136.7 143 109.3 107 82 97C54.7 87 27.3 103 13.7 111L0 119Z" fill="#387eaa"></path><path d="M0 199L13.7 184C27.3 169 54.7 139 82 152C109.3 165 136.7 221 163.8 249C191 277 218 277 245.2 264C272.3 251 299.7 225 327 207C354.3 189 381.7 179 409 175C436.3 171 463.7 173 491 184C518.3 195 545.7 215 573 224C600.3 233 627.7 231 654.8 232C682 233 709 237 736.2 243C763.3 249 790.7 257 818 249C845.3 241 872.7 217 886.3 205L900 193L900 173L886.3 180C872.7 187 845.3 201 818 201C790.7 201 763.3 187 736.2 186C709 185 682 197 654.8 195C627.7 193 600.3 177 573 171C545.7 165 518.3 169 491 167C463.7 165 436.3 157 409 155C381.7 153 354.3 157 327 167C299.7 177 272.3 193 245.2 207C218 221 191 233 163.8 212C136.7 191 109.3 137 82 122C54.7 107 27.3 131 13.7 143L0 155Z" fill="#2c78a5"></path><path d="M0 349L13.7 322C27.3 295 54.7 241 82 229C109.3 217 136.7 247 163.8 281C191 315 218 353 245.2 351C272.3 349 299.7 307 327 304C354.3 301 381.7 337 409 345C436.3 353 463.7 333 491 313C518.3 293 545.7 273 573 295C600.3 317 627.7 381 654.8 386C682 391 709 337 736.2 314C763.3 291 790.7 299 818 331C845.3 363 872.7 419 886.3 447L900 475L900 191L886.3 203C872.7 215 845.3 239 818 247C790.7 255 763.3 247 736.2 241C709 235 682 231 654.8 230C627.7 229 600.3 231 573 222C545.7 213 518.3 193 491 182C463.7 171 436.3 169 409 173C381.7 177 354.3 187 327 205C299.7 223 272.3 249 245.2 262C218 275 191 275 163.8 247C136.7 219 109.3 163 82 150C54.7 137 27.3 167 13.7 182L0 197Z" fill="#1e71a0"></path><path d="M0 421L13.7 406C27.3 391 54.7 361 82 358C109.3 355 136.7 379 163.8 391C191 403 218 403 245.2 394C272.3 385 299.7 367 327 373C354.3 379 381.7 409 409 420C436.3 431 463.7 423 491 413C518.3 403 545.7 391 573 407C600.3 423 627.7 467 654.8 457C682 447 709 383 736.2 360C763.3 337 790.7 355 818 381C845.3 407 872.7 441 886.3 458L900 475L900 473L886.3 445C872.7 417 845.3 361 818 329C790.7 297 763.3 289 736.2 312C709 335 682 389 654.8 384C627.7 379 600.3 315 573 293C545.7 271 518.3 291 491 311C463.7 331 436.3 351 409 343C381.7 335 354.3 299 327 302C299.7 305 272.3 347 245.2 349C218 351 191 313 163.8 279C136.7 245 109.3 215 82 227C54.7 239 27.3 293 13.7 320L0 347Z" fill="#1c6b97"></path><path d="M0 505L13.7 477C27.3 449 54.7 393 82 378C109.3 363 136.7 389 163.8 400C191 411 218 407 245.2 400C272.3 393 299.7 383 327 401C354.3 419 381.7 465 409 484C436.3 503 463.7 495 491 479C518.3 463 545.7 439 573 453C600.3 467 627.7 519 654.8 507C682 495 709 419 736.2 397C763.3 375 790.7 407 818 439C845.3 471 872.7 503 886.3 519L900 535L900 473L886.3 456C872.7 439 845.3 405 818 379C790.7 353 763.3 335 736.2 358C709 381 682 445 654.8 455C627.7 465 600.3 421 573 405C545.7 389 518.3 401 491 411C463.7 421 436.3 429 409 418C381.7 407 354.3 377 327 371C299.7 365 272.3 383 245.2 392C218 401 191 401 163.8 389C136.7 377 109.3 353 82 356C54.7 359 27.3 389 13.7 404L0 419Z" fill="#1b658e"></path><path d="M0 523L13.7 523C27.3 523 54.7 523 82 530C109.3 537 136.7 551 163.8 554C191 557 218 549 245.2 540C272.3 531 299.7 521 327 518C354.3 515 381.7 519 409 516C436.3 513 463.7 503 491 513C518.3 523 545.7 553 573 570C600.3 587 627.7 591 654.8 576C682 561 709 527 736.2 520C763.3 513 790.7 533 818 547C845.3 561 872.7 569 886.3 573L900 577L900 533L886.3 517C872.7 501 845.3 469 818 437C790.7 405 763.3 373 736.2 395C709 417 682 493 654.8 505C627.7 517 600.3 465 573 451C545.7 437 518.3 461 491 477C463.7 493 436.3 501 409 482C381.7 463 354.3 417 327 399C299.7 381 272.3 391 245.2 398C218 405 191 409 163.8 398C136.7 387 109.3 361 82 376C54.7 391 27.3 447 13.7 475L0 503Z" fill="#195f86"></path><path d="M0 571L13.7 569C27.3 567 54.7 563 82 564C109.3 565 136.7 571 163.8 572C191 573 218 569 245.2 563C272.3 557 299.7 549 327 547C354.3 545 381.7 549 409 550C436.3 551 463.7 549 491 557C518.3 565 545.7 583 573 592C600.3 601 627.7 601 654.8 591C682 581 709 561 736.2 554C763.3 547 790.7 553 818 559C845.3 565 872.7 571 886.3 574L900 577L900 575L886.3 571C872.7 567 845.3 559 818 545C790.7 531 763.3 511 736.2 518C709 525 682 559 654.8 574C627.7 589 600.3 585 573 568C545.7 551 518.3 521 491 511C463.7 501 436.3 511 409 514C381.7 517 354.3 513 327 516C299.7 519 272.3 529 245.2 538C218 547 191 555 163.8 552C136.7 549 109.3 535 82 528C54.7 521 27.3 521 13.7 521L0 521Z" fill="#17597d"></path><path d="M0 601L13.7 601C27.3 601 54.7 601 82 601C109.3 601 136.7 601 163.8 601C191 601 218 601 245.2 601C272.3 601 299.7 601 327 601C354.3 601 381.7 601 409 601C436.3 601 463.7 601 491 601C518.3 601 545.7 601 573 601C600.3 601 627.7 601 654.8 601C682 601 709 601 736.2 601C763.3 601 790.7 601 818 601C845.3 601 872.7 601 886.3 601L900 601L900 575L886.3 572C872.7 569 845.3 563 818 557C790.7 551 763.3 545 736.2 552C709 559 682 579 654.8 589C627.7 599 600.3 599 573 590C545.7 581 518.3 563 491 555C463.7 547 436.3 549 409 548C381.7 547 354.3 543 327 545C299.7 547 272.3 555 245.2 561C218 567 191 571 163.8 570C136.7 569 109.3 563 82 562C54.7 561 27.3 565 13.7 567L0 569Z" fill="#165375"></path></svg>